<svg width="81" height="64" viewBox="0 0 81 64" fill="none" xmlns="http://www.w3.org/2000/svg">
<rect width="64" height="64" rx="32" fill="#191919"/>
<path d="M21.137 32.792C20.843 33.086 20.717 33.191 20.36 33.527C18.701 35.102 16.811 36.866 15.908 36.866C15.887 36.866 15.845 36.845 15.803 36.845C15.572 36.803 15.404 36.677 15.257 36.509C15.089 36.299 15.026 36.047 15.026 35.753C15.026 35.648 15.026 35.543 15.047 35.438C15.089 35.102 15.215 34.682 15.425 34.262C16.034 32.918 17.336 31.343 18.953 30.86C19.373 30.734 19.751 30.692 20.087 30.692C20.738 30.692 21.221 30.902 21.536 31.217C22.166 30.692 22.901 30.167 23.3 30.167C23.363 30.167 23.426 30.188 23.468 30.209C23.741 30.251 23.888 30.524 23.888 30.986C23.888 31.49 23.72 32.204 23.363 33.107C23.132 33.737 23.027 34.262 23.027 34.682C23.027 35.774 23.72 36.173 24.749 36.173C27.416 36.173 32.372 33.359 33.107 32.435C33.233 32.183 33.38 32.099 33.506 32.099C33.695 32.099 33.821 32.267 33.821 32.498C33.821 32.624 33.779 32.75 33.674 32.876C33.422 33.233 27.794 36.53 24.518 36.53C23.174 36.53 22.229 35.963 22.229 34.388C22.229 33.968 22.292 33.485 22.439 32.897C22.565 32.099 22.838 31.364 22.838 31.196V31.175C22.838 31.175 22.523 31.469 22.04 31.931C22.124 32.183 22.124 32.435 22.124 32.561V32.645C21.935 32.918 21.683 33.044 21.452 33.044C21.368 33.044 21.284 33.023 21.2 32.981L21.137 32.792ZM20.339 32.246C20.234 32.162 20.129 32.141 20.003 32.141C18.995 32.141 17.231 34.43 17.231 34.913C17.231 34.976 17.273 35.018 17.357 35.018C17.756 35.018 19.016 34.01 20.339 32.246ZM35.4437 28.361C37.2917 25.946 38.3837 24.476 39.8537 21.62C40.1477 21.053 42.0377 17.63 42.0377 16.412C42.0377 16.286 42.0167 16.181 41.9747 16.097C41.9327 16.076 41.9117 16.076 41.8697 16.076C41.7017 16.076 41.4497 16.244 41.1557 16.559C38.6987 19.016 36.2207 25.085 35.4437 28.361ZM40.9877 21.998C39.3497 25.127 36.9767 28.487 34.9817 30.671L34.8137 30.86C34.2887 33.296 33.9737 35.039 33.7637 36.257C34.8137 33.422 36.6617 29.873 39.5807 29.873H39.6227C41.4707 30.041 42.0377 31.364 42.0377 32.792C42.0377 33.17 41.9957 33.59 41.9327 33.968C43.4027 33.275 44.7887 32.897 46.5107 32.645H46.5527C46.7837 32.645 46.8887 32.834 46.8887 33.023C46.8887 33.191 46.8047 33.338 46.6577 33.359C44.8517 33.632 43.4027 33.758 41.8907 34.514C41.5337 36.572 40.8407 38.651 39.6017 40.331C38.3837 41.948 36.7877 43.25 35.6537 43.25C35.2547 43.25 34.8977 43.082 34.6667 42.704C34.5617 42.473 34.5197 42.242 34.5197 41.969C34.5197 39.386 38.8247 35.48 40.7777 34.577C40.8407 34.283 40.8827 33.863 40.8827 33.401C40.8827 32.204 40.5677 30.776 39.4757 30.776H39.4337C35.4647 30.776 33.4697 38.798 33.4487 38.84C33.3647 38.987 33.2177 39.092 33.0707 39.092C32.9447 39.092 32.8187 39.029 32.7767 38.819C32.7767 38.819 32.7347 38.588 32.7347 38C32.7347 36.929 32.8817 34.64 33.8267 30.398C34.7297 26.261 37.4597 19.31 40.5467 16.223C40.9457 15.824 41.4707 15.593 41.8697 15.593C41.9957 15.593 42.1007 15.614 42.2057 15.656C42.3107 15.719 42.4157 15.824 42.5207 15.971C42.6677 16.202 42.7307 16.517 42.7307 16.916C42.7307 18.113 42.0377 19.982 40.9877 21.998ZM40.7357 35.102C39.3497 35.627 34.7927 40.247 34.7927 42.095C34.7927 42.284 34.8557 42.452 34.9607 42.578C35.1077 42.788 35.3177 42.893 35.5487 42.893C36.3467 42.893 37.4597 41.675 38.4257 40.31C39.7067 38.483 40.1897 37.223 40.7357 35.102Z" fill="white"/>
</svg>
