<svg width="211" height="45" viewBox="0 0 211 45" fill="none" xmlns="http://www.w3.org/2000/svg">
<path d="M30.342 36.841C30.573 36.19 31.539 36.043 31.749 35.413C33.681 29.68 35.088 24.556 36.159 20.566C30.636 21.049 24.735 22.267 19.212 22.792C17.301 25.879 15.453 29.029 13.689 32.179C13.479 33.208 13.206 34.216 12.912 35.203C11.652 39.424 11.001 42.301 9.657 43.288C9.405 43.477 9.174 43.582 8.964 43.582C8.649 43.582 8.439 43.288 8.439 42.637C8.439 41.167 9.573 37.828 12.975 32.032C13.458 30.289 14.025 28.273 14.025 26.404C14.025 25.333 13.836 24.304 13.353 23.401C10.581 23.632 7.935 23.737 5.772 23.737C2.643 23.737 0.48 23.485 0.312 22.96C0.27 22.876 0.249 22.813 0.249 22.708C0.249 21.574 4.26 19.6 7.956 19.6C10.056 19.6 12.051 20.23 13.143 21.994C15.075 21.826 17.112 21.637 19.17 21.448C23.769 14.056 28.746 6.958 31.791 4.375C31.896 4.27 32.001 4.186 32.127 4.102C33.681 2.884 35.193 2.023 36.453 1.813C36.663 1.771 36.873 1.75 37.062 1.75C39.288 1.75 40.002 4.081 40.002 7.063C40.002 11.767 38.238 18.109 37.797 19.831H38.49C39.582 19.831 40.233 19.915 40.296 20.125V20.167C40.296 20.545 39.414 20.965 37.356 21.469C36.159 25.774 34.521 30.94 32.358 37.072C32.337 37.492 31.917 37.702 31.476 37.702C30.93 37.702 30.342 37.408 30.342 36.904V36.841ZM36.348 19.915C36.747 18.361 38.994 10.99 38.994 6.349C38.994 4.102 38.469 2.506 36.978 2.506C36.852 2.506 36.726 2.527 36.579 2.548C35.445 2.737 34.059 3.535 32.568 4.69C32.484 4.774 32.4 4.837 32.274 4.942C29.355 7.42 24.588 14.182 20.094 21.364C25.47 20.839 30.972 20.167 36.348 19.915ZM37.566 20.65C38.931 20.377 39.561 20.377 39.561 20.293H39.498C39.309 20.293 38.637 20.335 37.629 20.419L37.566 20.65ZM18.288 22.876C16.461 23.002 15.285 23.086 13.899 23.359C14.382 24.43 14.529 25.396 14.529 26.32C14.529 27.538 14.256 28.714 14.088 30.016C15.432 27.601 16.839 25.228 18.288 22.876ZM12.24 34.846C9.804 39.382 8.943 41.734 8.943 42.259C8.943 42.343 8.964 42.364 8.985 42.364C9.3 42.364 10.791 39.676 12.198 34.993L12.24 34.846ZM12.534 22.057C11.526 20.755 9.972 20.314 8.355 20.314C5.016 20.314 1.362 22.162 1.362 22.246C1.425 22.456 2.265 22.561 3.672 22.561C5.667 22.561 8.817 22.372 12.534 22.057ZM46.8203 21.679C46.8203 21.679 46.7363 20.776 45.9593 20.776C45.8963 20.776 45.8333 20.797 45.7703 20.797C44.8463 20.944 43.5443 22.204 42.6413 23.779C42.1793 24.556 41.7593 25.732 41.7593 26.362C41.7593 26.635 41.8433 26.803 42.0323 26.803C42.2843 26.803 42.7463 26.467 43.5023 25.585C46.0643 22.624 46.8203 21.679 46.8203 21.679ZM49.0253 18.865C50.8313 15.736 53.5403 10.486 53.9393 9.541C54.2333 8.827 54.7163 7.84 54.7163 7.42C54.7163 7.294 54.6743 7.231 54.5693 7.231H54.5483C54.0443 7.273 52.8893 9.163 52.8893 9.163C51.1463 11.914 49.0253 18.865 49.0253 18.865ZM47.4713 20.923C49.1303 16.219 50.5373 11.977 52.6163 8.491C53.6243 6.811 54.3593 6.328 54.8423 6.328C55.2623 6.328 55.4723 6.727 55.4723 6.979C55.4723 7.021 55.4723 7.063 55.4513 7.105V7.252C55.4513 11.557 47.9333 21.805 47.9333 21.805L46.4003 25.963C45.0353 29.722 44.3633 34.237 44.3633 36.295C44.3633 36.547 44.3633 36.736 44.3843 36.904C44.5523 38.521 45.5393 39.025 45.9173 39.025C46.1693 39.025 46.4213 39.256 46.4213 39.487C46.4213 39.613 46.3583 39.718 46.2113 39.802C46.1483 39.844 46.0643 39.865 45.9803 39.865C45.6023 39.865 45.1823 39.403 45.1823 39.403C44.2163 38.374 44.0273 36.505 44.0273 36.505C44.0063 36.253 44.0063 36.001 44.0063 35.749C44.0063 31.507 46.0013 24.976 46.8203 23.212C46.8203 23.212 43.8593 26.803 42.4523 27.475C42.2003 27.601 41.9483 27.664 41.7383 27.664C41.0453 27.664 40.6043 27.034 40.6043 26.047C40.6043 25.669 40.6883 25.249 40.8143 24.766C41.4023 22.645 42.6833 20.314 44.6993 19.768C44.9723 19.684 45.2243 19.663 45.4763 19.663C46.9043 19.663 47.4713 20.923 47.4713 20.923ZM54.3553 21.448C54.3553 21.448 53.0113 23.884 53.0113 25.354C53.0113 25.795 53.1373 26.152 53.4313 26.341C53.5363 26.425 53.7043 26.446 53.9143 26.446C56.3713 26.446 65.6743 22.435 65.6743 22.435C65.8423 22.309 65.9893 22.267 66.1363 22.267C66.5143 22.267 66.7873 22.561 66.7873 22.771C66.7873 22.813 66.7873 22.855 66.7453 22.897C66.7243 22.897 57.0433 27.118 53.5363 27.118C53.0113 27.118 52.6123 27.034 52.4233 26.803C51.8353 26.425 51.6253 25.711 51.6253 24.913C51.6253 23.443 52.3393 21.658 52.7173 21.007C52.8853 20.65 53.1793 20.503 53.4943 20.503C53.9353 20.503 54.3763 20.818 54.3763 21.259C54.3763 21.322 54.3763 21.385 54.3553 21.448ZM55.1113 16.534C55.3843 16.639 55.5523 16.933 55.5523 17.29C55.5523 17.437 55.5313 17.584 55.4683 17.731C55.3213 18.172 54.9643 18.466 54.6283 18.466C54.5653 18.466 54.5023 18.466 54.4393 18.445C54.1663 18.34 53.9983 18.046 53.9983 17.689C53.9983 17.542 54.0193 17.395 54.0823 17.248C54.2503 16.807 54.6073 16.513 54.9433 16.513C55.0063 16.513 55.0483 16.513 55.1113 16.534ZM71.6915 11.242C72.7415 9.961 75.1145 5.635 75.6395 4.165C75.7655 3.787 75.8285 3.556 75.8285 3.472C75.8285 3.451 75.8075 3.43 75.8075 3.43C75.4925 3.43 71.7545 11.053 71.6915 11.242ZM55.7525 14.161C56.4035 14.224 57.3485 14.245 58.5245 14.245C60.9815 14.245 64.5725 14.098 69.2555 13.72C71.9855 7.336 74.8415 2.443 76.1645 2.443H76.2065C76.6055 2.59 76.7735 2.947 76.7735 3.451C76.7735 5.845 72.6575 11.557 71.1455 13.636C72.9935 13.51 85.4675 12.397 87.5675 12.397C87.7145 12.397 87.8195 12.397 87.8615 12.418C87.9455 12.544 87.9875 12.649 87.9875 12.754C87.9875 13.51 86.2445 14.077 86.2445 14.077C86.1605 14.119 86.0765 14.14 85.9925 14.14C85.6985 14.14 85.4675 13.888 85.4675 13.594C85.4675 13.51 85.4885 13.426 85.5305 13.342C85.5305 13.342 75.7025 13.762 70.8305 14.161C69.1295 16.534 63.7535 29.155 63.7535 35.014C63.7535 36.736 64.2365 37.891 65.4125 37.996C65.6645 38.017 65.7695 38.185 65.7695 38.353C65.7695 38.584 65.5805 38.836 65.3495 38.836C65.3075 38.836 65.2655 38.836 65.2235 38.815C64.0055 38.29 63.5015 36.715 63.5015 34.51C63.5015 29.512 66.1055 21.217 69.0035 14.308C65.6015 14.329 61.4435 14.476 58.3775 14.476C55.9835 14.476 54.2615 14.371 54.1355 14.056C54.1145 14.014 54.0935 13.972 54.0935 13.93C54.0935 13.657 54.5555 13.552 54.8285 13.552H54.9545C55.2695 13.552 55.7525 13.678 55.7525 14.161ZM80.8406 19.642C81.6386 19.663 81.9116 20.335 81.9116 21.259C81.9116 23.044 80.8616 25.795 80.6516 26.635C82.4786 24.178 87.5816 22.162 89.3456 22.162C89.4506 22.162 89.5556 22.162 89.6396 22.183C89.8706 22.246 89.9756 22.351 89.9756 22.477C89.9756 22.645 89.8286 22.834 89.6396 23.023C84.9986 23.191 81.7646 25.753 80.0636 28.042C79.2026 31.024 77.2076 36.211 76.1996 38.857C75.9266 39.571 73.9736 44.863 72.7346 44.863C72.6716 44.863 72.6296 44.863 72.5876 44.842C71.9996 44.653 71.8316 44.044 71.8316 43.393C71.8316 42.679 72.0206 41.923 72.1046 41.629C72.4616 40.327 73.0706 38.647 73.8476 36.862C74.9186 34.405 76.9766 31.045 78.6146 28.798C78.8666 27.895 79.2866 26.509 79.4966 25.69C79.6016 25.291 80.5046 21.553 80.5046 20.65C80.5046 20.524 80.4836 20.461 80.4626 20.44H80.4206C79.6856 20.44 74.5196 27.16 72.6506 27.643C72.3566 27.727 72.1046 27.769 71.8526 27.769C71.1596 27.769 70.6766 27.433 70.6136 26.803C70.5296 26.53 70.5086 26.215 70.5086 25.9C70.5086 24.01 71.5166 21.427 71.9366 19.768C71.9996 19.453 72.2306 19.327 72.5246 19.327C73.0496 19.327 73.7636 19.768 73.7636 20.251C73.7636 20.293 73.7426 20.356 73.7426 20.398C73.3436 21.952 72.5036 23.968 72.5036 25.627C72.5036 25.816 72.5246 25.984 72.5456 26.173C72.5876 26.509 72.6716 26.698 72.8816 26.698H72.9236C74.8136 26.362 78.9086 19.642 80.8406 19.642ZM75.7376 38.353C76.3886 36.61 77.2076 33.439 77.8376 31.444C76.9346 32.977 75.6326 35.854 74.9816 37.387C74.2046 39.172 73.6166 40.81 73.2596 42.091C73.0286 42.952 72.9026 43.603 72.9026 43.939V44.002C73.3226 43.624 74.6246 41.293 75.7376 38.353ZM93.5774 22.792C93.2834 23.086 93.1574 23.191 92.8004 23.527C91.1414 25.102 89.2514 26.866 88.3484 26.866C88.3274 26.866 88.2854 26.845 88.2434 26.845C88.0124 26.803 87.8444 26.677 87.6974 26.509C87.5294 26.299 87.4664 26.047 87.4664 25.753C87.4664 25.648 87.4664 25.543 87.4874 25.438C87.5294 25.102 87.6554 24.682 87.8654 24.262C88.4744 22.918 89.7764 21.343 91.3934 20.86C91.8134 20.734 92.1914 20.692 92.5274 20.692C93.1784 20.692 93.6614 20.902 93.9764 21.217C94.6064 20.692 95.3414 20.167 95.7404 20.167C95.8034 20.167 95.8664 20.188 95.9084 20.209C96.1814 20.251 96.3284 20.524 96.3284 20.986C96.3284 21.49 96.1604 22.204 95.8034 23.107C95.5724 23.737 95.4674 24.262 95.4674 24.682C95.4674 25.774 96.1604 26.173 97.1894 26.173C99.8564 26.173 104.812 23.359 105.547 22.435C105.673 22.183 105.82 22.099 105.946 22.099C106.135 22.099 106.261 22.267 106.261 22.498C106.261 22.624 106.219 22.75 106.114 22.876C105.862 23.233 100.234 26.53 96.9584 26.53C95.6144 26.53 94.6694 25.963 94.6694 24.388C94.6694 23.968 94.7324 23.485 94.8794 22.897C95.0054 22.099 95.2784 21.364 95.2784 21.196V21.175C95.2784 21.175 94.9634 21.469 94.4804 21.931C94.5644 22.183 94.5644 22.435 94.5644 22.561V22.645C94.3754 22.918 94.1234 23.044 93.8924 23.044C93.8084 23.044 93.7244 23.023 93.6404 22.981L93.5774 22.792ZM92.7794 22.246C92.6744 22.162 92.5694 22.141 92.4434 22.141C91.4354 22.141 89.6714 24.43 89.6714 24.913C89.6714 24.976 89.7134 25.018 89.7974 25.018C90.1964 25.018 91.4564 24.01 92.7794 22.246ZM134.415 1.267C134.415 1.288 134.142 2.065 133.701 3.409C133.932 3.388 134.163 3.367 134.373 3.367C136.704 3.367 137.649 4.816 137.649 6.643C137.649 9.226 135.801 12.565 133.386 13.741C133.197 13.888 133.05 13.993 132.966 14.077C133.197 14.14 133.575 14.182 134.037 14.245C134.436 14.308 134.898 14.35 135.402 14.434C138.867 12.943 142.311 12.04 145.314 12.04C146.049 12.04 146.763 12.082 147.456 12.208C147.666 12.292 147.771 12.439 147.771 12.586C147.771 12.775 147.603 12.964 147.372 12.964H147.33C146.364 12.67 145.356 12.502 144.327 12.502C142.08 12.502 139.623 13.237 137.019 14.77C142.416 16.114 144.957 20.545 144.957 25.291C144.957 28.273 143.97 31.36 142.059 33.922C137.565 39.97 130.383 42.742 124.461 42.742C118.812 42.742 114.297 40.222 114.297 35.644C114.297 33.733 115.095 31.444 116.901 28.84C118.518 26.509 120.765 24.157 123.369 21.973C125.532 14.14 128.556 5.53 132.819 3.598C132.924 3.241 133.239 2.401 133.239 2.128C133.239 2.065 133.218 2.044 133.197 2.044C133.176 2.044 133.155 2.044 133.134 2.065C132.945 2.191 132.798 2.233 132.651 2.233C132.294 2.233 132.105 1.897 132.105 1.876C132.504 0.699998 133.239 0.133 133.785 0.133C134.163 0.133 134.457 0.406 134.457 0.930999C134.457 1.036 134.436 1.141 134.415 1.267ZM133.26 4.711C132.168 7.945 130.467 12.859 128.577 18.13C130.362 16.975 132.21 15.925 134.079 15.043L133.932 15.022C133.344 14.938 132.882 14.896 132.588 14.791C132.231 14.665 132.042 14.497 132.042 14.224C132.042 14.14 132.063 14.035 132.105 13.93C132.21 13.72 132.462 13.447 132.945 13.111C134.856 11.767 136.263 8.911 136.263 6.874C136.263 5.551 135.675 4.585 134.247 4.585C133.953 4.585 133.638 4.627 133.26 4.711ZM127.968 19.747C125.805 27.412 123.411 33.187 122.214 33.187C122.13 33.187 122.046 33.166 121.983 33.103C121.773 33.103 121.626 32.977 121.521 32.767C121.458 32.599 121.416 32.326 121.416 31.948C121.416 31.339 121.5 30.499 121.668 29.47C121.92 27.874 122.193 26.404 122.802 24.115L122.844 23.926C120.66 25.858 119.337 27.706 117.93 29.722C116.187 32.242 115.431 34.384 115.431 36.127C115.431 40.054 119.274 42.007 124.167 42.007C130.089 42.007 137.544 39.172 141.744 33.544C143.508 31.171 144.39 28.378 144.39 25.669C144.39 20.839 141.534 16.345 135.759 15.295C133.26 16.387 130.341 18.151 127.968 19.747ZM122.193 32.263C122.235 32.284 122.256 32.284 122.298 32.284C123.285 32.284 125.112 27.265 127.002 20.419C125.763 21.301 124.965 22.141 123.873 23.044C123.768 23.464 123.663 23.884 123.537 24.304C122.949 26.572 122.676 28.021 122.424 29.596C122.256 30.625 122.172 31.402 122.172 31.906C122.172 32.053 122.172 32.158 122.193 32.263ZM127.59 18.781C129.438 13.573 131.139 8.575 132.315 5.089C129.606 7.21 126.414 14.14 124.419 21.112C125.427 20.293 126.498 19.516 127.59 18.781ZM154.916 22.792C154.622 23.086 154.496 23.191 154.139 23.527C152.48 25.102 150.59 26.866 149.687 26.866C149.666 26.866 149.624 26.845 149.582 26.845C149.351 26.803 149.183 26.677 149.036 26.509C148.868 26.299 148.805 26.047 148.805 25.753C148.805 25.648 148.805 25.543 148.826 25.438C148.868 25.102 148.994 24.682 149.204 24.262C149.813 22.918 151.115 21.343 152.732 20.86C153.152 20.734 153.53 20.692 153.866 20.692C154.517 20.692 155 20.902 155.315 21.217C155.945 20.692 156.68 20.167 157.079 20.167C157.142 20.167 157.205 20.188 157.247 20.209C157.52 20.251 157.667 20.524 157.667 20.986C157.667 21.49 157.499 22.204 157.142 23.107C156.911 23.737 156.806 24.262 156.806 24.682C156.806 25.774 157.499 26.173 158.528 26.173C161.195 26.173 166.151 23.359 166.886 22.435C167.012 22.183 167.159 22.099 167.285 22.099C167.474 22.099 167.6 22.267 167.6 22.498C167.6 22.624 167.558 22.75 167.453 22.876C167.201 23.233 161.573 26.53 158.297 26.53C156.953 26.53 156.008 25.963 156.008 24.388C156.008 23.968 156.071 23.485 156.218 22.897C156.344 22.099 156.617 21.364 156.617 21.196V21.175C156.617 21.175 156.302 21.469 155.819 21.931C155.903 22.183 155.903 22.435 155.903 22.561V22.645C155.714 22.918 155.462 23.044 155.231 23.044C155.147 23.044 155.063 23.023 154.979 22.981L154.916 22.792ZM154.118 22.246C154.013 22.162 153.908 22.141 153.782 22.141C152.774 22.141 151.01 24.43 151.01 24.913C151.01 24.976 151.052 25.018 151.136 25.018C151.535 25.018 152.795 24.01 154.118 22.246ZM170.861 22.834C170.861 22.834 170.882 22.771 170.882 22.666C170.882 22.561 170.861 22.393 170.777 22.246C170.483 22.561 170.168 22.897 169.853 23.233C168.362 24.871 166.808 26.572 165.8 26.887C165.611 26.95 165.443 26.971 165.296 26.971C165.128 26.971 164.981 26.929 164.855 26.866C164.561 26.719 164.435 26.488 164.435 26.215C164.435 26.089 164.456 25.963 164.498 25.837C164.561 25.564 164.75 25.228 164.981 24.85C165.947 23.401 168.089 21.343 169.433 21.112C169.685 21.07 169.895 21.07 170.084 21.07C170.273 21.07 170.441 21.07 170.588 21.112C171.617 20.062 172.52 19.264 173.192 19.264C173.276 19.264 173.339 19.285 173.423 19.306C173.843 19.453 174.095 19.894 174.095 20.734C174.095 21.049 174.053 21.448 173.969 21.91C173.801 22.96 173.633 23.758 173.276 25.144C173.234 25.291 172.982 26.089 172.94 26.257C174.767 23.821 180.29 21.784 182.054 21.784C182.159 21.784 182.243 21.784 182.327 21.805C182.579 21.889 182.663 21.994 182.663 22.12C182.663 22.267 182.516 22.456 182.327 22.645C177.728 22.813 173.738 25.375 172.415 28.294C171.575 31.234 170.042 35.665 169.055 38.269C168.803 38.983 166.85 44.212 165.632 44.212C165.59 44.212 165.527 44.212 165.485 44.191C164.918 44.002 164.75 43.393 164.75 42.742C164.75 42.049 164.939 41.314 165.023 41.02C165.359 39.718 165.947 38.08 166.724 36.295C167.795 33.88 169.916 29.722 171.533 27.496C171.785 26.614 172.1 26.089 172.31 25.27C172.667 23.905 172.94 22.666 173.129 21.637C173.255 20.902 173.318 20.482 173.318 20.272C173.318 20.167 173.297 20.104 173.276 20.104H173.213C172.919 20.104 172.226 20.713 171.407 21.574C171.68 21.91 171.743 22.351 171.743 22.687C171.743 22.96 171.701 23.149 171.701 23.149L170.861 22.834ZM169.895 22.12C168.971 22.645 166.871 24.64 166.22 25.417C167.921 24.556 169.118 23.233 169.895 22.12ZM168.593 37.786C169.244 36.064 170.063 32.935 170.672 30.961C169.79 32.473 168.509 35.329 167.837 36.841C167.081 38.584 166.493 40.222 166.157 41.482C165.926 42.322 165.8 42.952 165.8 43.288V43.351C166.199 42.994 167.501 40.684 168.593 37.786ZM183.738 20.356L182.709 22.897C183.528 21.154 184.725 20.041 185.733 20.041C186.174 20.041 186.573 20.251 186.909 20.692C187.686 22.414 190.794 22.729 193.125 22.729C194.154 22.729 195.036 22.666 195.477 22.645C195.729 22.624 195.918 22.435 195.96 22.435C196.044 22.414 196.128 22.393 196.17 22.393C196.296 22.393 196.338 22.456 196.338 22.519C196.338 22.666 196.191 22.876 196.023 22.918C195.918 23.023 194.322 23.275 192.453 23.275C190.164 23.275 187.455 22.897 186.405 21.427C186.279 21.259 186.132 21.175 185.985 21.175C184.494 21.175 181.743 27.748 181.722 27.769V27.811C181.722 28.063 181.428 28.168 181.113 28.168C180.735 28.168 180.315 28.021 180.315 27.811C180.315 27.769 180.336 27.748 180.336 27.727L182.121 20.251C182.268 19.852 182.604 19.705 182.94 19.705C183.339 19.705 183.738 19.936 183.738 20.314V20.356ZM197.972 21.448C197.972 21.448 196.628 23.884 196.628 25.354C196.628 25.795 196.754 26.152 197.048 26.341C197.153 26.425 197.321 26.446 197.531 26.446C199.988 26.446 209.291 22.435 209.291 22.435C209.459 22.309 209.606 22.267 209.753 22.267C210.131 22.267 210.404 22.561 210.404 22.771C210.404 22.813 210.404 22.855 210.362 22.897C210.341 22.897 200.66 27.118 197.153 27.118C196.628 27.118 196.229 27.034 196.04 26.803C195.452 26.425 195.242 25.711 195.242 24.913C195.242 23.443 195.956 21.658 196.334 21.007C196.502 20.65 196.796 20.503 197.111 20.503C197.552 20.503 197.993 20.818 197.993 21.259C197.993 21.322 197.993 21.385 197.972 21.448ZM198.728 16.534C199.001 16.639 199.169 16.933 199.169 17.29C199.169 17.437 199.148 17.584 199.085 17.731C198.938 18.172 198.581 18.466 198.245 18.466C198.182 18.466 198.119 18.466 198.056 18.445C197.783 18.34 197.615 18.046 197.615 17.689C197.615 17.542 197.636 17.395 197.699 17.248C197.867 16.807 198.224 16.513 198.56 16.513C198.623 16.513 198.665 16.513 198.728 16.534Z" fill="white"/>
</svg>
